<svg width="157" height="157" viewBox="0 0 157 157" fill="none" xmlns="http://www.w3.org/2000/svg">
<g clip-path="url(#clip0_949_5237)">
<path d="M148.194 156.489C146.219 156.489 143.915 155.015 141.231 153.315C140.572 152.898 139.897 152.465 139.204 152.048C138.459 151.597 137.836 151.233 137.247 150.904C136.311 150.383 135.428 149.967 134.597 149.602C133.003 148.926 131.514 148.475 130.024 148.232C129.678 148.18 129.331 148.128 128.985 148.093C128.344 148.041 127.72 147.989 127.114 147.937C126.213 147.868 125.347 147.816 124.533 147.781H124.516C122.819 147.694 121.121 147.642 119.476 147.642C117.744 147.642 116.011 147.694 114.331 147.798C113.327 147.85 112.305 147.937 111.266 148.041C106.658 148.475 102.571 149.255 99.193 149.967C98.327 150.14 97.4782 150.331 96.6122 150.522L95.3305 150.799C88.8525 152.205 82.1667 153.644 73.4197 154.13C68.5699 154.408 63.9452 154.547 59.6843 154.547H59.1474C57.4153 154.547 55.7005 154.512 54.0377 154.46C53.674 154.442 53.3276 154.442 52.9812 154.425C48.599 154.269 44.494 153.939 40.7873 153.454H40.7527C38.2412 153.124 35.8509 152.725 33.6339 152.239L33.5819 152.222C31.0531 151.667 28.7494 151.042 26.515 150.279C25.6663 149.984 24.7829 149.672 23.8476 149.308C22.9296 148.943 22.0982 148.596 21.3707 148.301C19.3096 147.434 17.82 146.827 16.469 146.827C15.8801 146.827 15.3258 146.931 14.7369 147.174C14.0094 147.451 13.1607 147.833 12.2773 148.215C11.394 148.614 10.476 149.013 9.54065 149.394C8.84782 149.672 8.22428 149.915 7.65269 150.106C6.11114 150.626 4.86405 150.886 3.85944 150.886C2.40449 150.886 1.38257 150.348 0.845623 149.29C-0.384152 146.861 1.17472 143.409 3.04536 140.044C3.28785 139.61 3.54767 139.142 3.85944 138.604C4.11925 138.17 4.37906 137.719 4.62155 137.286C6.30167 134.423 7.87786 131.717 8.31088 129.601C9.47137 123.754 8.65729 119.209 7.51412 112.929C6.89057 109.512 6.18042 105.626 5.6608 100.769C5.50491 99.3115 5.36635 97.8369 5.26242 96.3624L5.22778 95.7552V95.7378C4.96797 91.8693 4.88137 87.9314 4.93333 83.6985C4.95065 82.5709 5.00261 81.3739 5.08921 80.177V80.1596C5.22778 78.1126 5.47027 75.9268 5.81669 73.4981C5.93793 72.6307 6.0765 71.7286 6.24971 70.7225C6.5788 68.7275 6.97718 66.5417 7.46216 64.061C7.58341 63.4191 7.70465 62.7946 7.84322 62.1354V62.1007C8.22428 60.2618 8.60533 58.3536 8.98639 56.5147L9.38477 54.6065C9.5753 53.6523 9.78314 52.6982 9.97367 51.7441C10.5626 48.8644 11.0129 46.4877 11.4113 44.2672C11.6018 43.2437 11.7577 42.2375 11.9136 41.2834C13.5764 30.9615 14.8235 17.7426 9.67922 6.95234C8.72658 4.94001 8.60533 3.1185 9.35013 1.92151C9.7485 1.29699 10.5799 0.533691 12.26 0.533691C13.5244 0.533691 15.0487 0.950036 16.7981 1.78272C18.5648 2.61541 20.5567 3.8818 22.6871 5.51248C23.4839 6.137 24.2287 6.64008 24.9388 7.05643C25.7529 7.54216 26.515 7.90646 27.2598 8.16668C27.5716 8.27076 27.8834 8.37485 28.2125 8.44424H28.2471C28.9053 8.60037 29.5462 8.66976 30.2217 8.66976C32.3175 8.66976 34.4826 7.90646 37.2366 6.95234C37.6869 6.79621 38.1546 6.64008 38.6396 6.4666C43.4721 4.81857 48.4431 3.56954 53.4142 2.78889C54.159 2.66746 54.9211 2.56337 55.6832 2.45929H55.7179C59.3899 1.97355 63.2004 1.69599 67.063 1.66129C67.496 1.66129 67.9463 1.64394 68.3793 1.64394C69.1068 1.64394 69.817 1.64394 70.5271 1.66129C81.699 1.88681 92.9575 3.8818 102.501 5.79004C103.263 5.94617 104.026 6.1023 104.805 6.25843C106.728 6.65743 108.806 7.09112 111.162 7.57686C112.443 7.85442 113.742 8.14933 115.128 8.47894C116.774 8.86059 118.471 9.25958 120.186 9.60654C121.138 9.79736 121.987 9.97084 122.819 10.1096C125.434 10.5433 127.686 10.7688 129.73 10.7688C130.18 10.7688 130.63 10.7515 131.063 10.7341C132.137 10.6821 133.176 10.5607 134.129 10.3872H134.164C135.255 10.179 136.277 9.8841 137.229 9.50245C138.684 8.92998 140.139 8.44424 141.525 8.04524C142.252 7.83707 142.997 7.64625 143.707 7.49012C145.474 7.10847 147.033 6.90029 148.384 6.90029H148.488C148.869 6.90029 149.25 6.91764 149.614 6.96969C150.393 7.05643 151.086 7.21255 151.675 7.45542C152.835 7.94116 153.615 8.73915 153.979 9.83206C154.706 11.9832 153.823 15.2792 151.329 19.6335C149.458 22.9122 148.73 28.637 149.493 34.2403C149.614 35.1944 149.787 36.1312 149.995 37.0506C150.116 37.6057 150.272 38.1782 150.428 38.7333C151.051 40.9365 151.64 43.0876 152.143 45.1346C152.333 45.8806 152.524 46.6612 152.714 47.4419C153.944 52.6115 154.827 57.3474 155.416 61.9272L155.434 61.9966C155.468 62.2741 155.503 62.569 155.537 62.8466C156.282 68.901 156.49 74.7124 156.213 80.6106C156.178 81.4086 156.126 82.224 156.057 83.1434V83.1608C155.884 85.6068 155.624 88.1049 155.26 90.7937C155.087 92.1469 154.879 93.5867 154.619 95.2001C154.377 96.7614 154.1 98.3747 153.805 100.144C153.459 102.139 153.113 104.134 152.732 106.251C152.558 107.205 152.385 108.159 152.212 109.13V109.165C151.675 112.236 151.034 115.913 150.411 119.903C150.203 121.256 150.012 122.523 149.839 123.789C149.648 125.16 149.475 126.409 149.319 127.606C148.142 136.696 149.995 141.813 151.346 145.543C152.576 148.926 153.459 151.372 151.311 154.581C150.532 155.882 149.493 156.489 148.194 156.489Z" fill="#AC5A6D"/>
<path d="M12.2947 0.967391C13.4205 0.967391 14.8755 1.33169 16.6422 2.18173C18.305 2.96238 20.2276 4.15937 22.4446 5.85944C23.2587 6.48396 24.0208 7.00439 24.731 7.43808C25.5797 7.94116 26.3591 8.32281 27.1212 8.58303C27.4677 8.70446 27.8141 8.80855 28.1432 8.89529C28.8533 9.06876 29.5288 9.13816 30.2043 9.13816C32.7159 9.13816 35.2274 8.11464 38.7608 6.91765C43.7492 5.21758 48.6336 4.02058 53.4661 3.25729C54.2109 3.13585 54.9731 3.03177 55.7178 2.92768C59.5111 2.4246 63.287 2.16438 67.0456 2.12969C67.4787 2.12969 67.929 2.11234 68.362 2.11234C69.0722 2.11234 69.7823 2.11234 70.5098 2.12969C81.0408 2.33786 91.5372 4.07263 102.415 6.24109C103.177 6.39722 103.939 6.55335 104.701 6.70948C106.797 7.14317 108.927 7.57686 111.058 8.0279C113.864 8.61772 116.929 9.41572 120.082 10.0576C120.965 10.2311 121.849 10.4045 122.732 10.5607C125.07 10.9597 127.426 11.2199 129.712 11.2199C130.163 11.2199 130.63 11.2025 131.081 11.1852C132.137 11.1331 133.194 11.0117 134.216 10.8209C135.307 10.6127 136.381 10.3178 137.403 9.9188C138.754 9.39837 140.209 8.89529 141.664 8.47894C142.391 8.27077 143.118 8.07995 143.829 7.92382C145.439 7.55952 147.016 7.35134 148.401 7.35134C148.436 7.35134 148.471 7.35134 148.505 7.35134C148.886 7.35134 149.25 7.36869 149.596 7.40339C150.307 7.47278 150.965 7.62891 151.536 7.87177C154.342 9.05142 155.035 12.3648 150.982 19.4427C149.181 22.6 148.28 28.3247 149.094 34.327C149.215 35.2638 149.389 36.2179 149.614 37.172C149.735 37.7445 149.891 38.2996 150.047 38.8721C150.67 41.0753 151.242 43.209 151.762 45.2561C151.952 46.0367 152.143 46.8 152.333 47.5633C153.58 52.8197 154.464 57.5729 155.035 62.0139C155.07 62.3262 155.122 62.6211 155.156 62.9334C155.953 69.3867 156.092 75.1288 155.832 80.628C155.797 81.478 155.745 82.3281 155.676 83.1608C155.486 85.7109 155.226 88.2436 154.879 90.7764C154.689 92.2336 154.481 93.7082 154.238 95.1827C153.979 96.8134 153.719 98.4441 153.424 100.127C152.922 103.024 152.385 106.008 151.831 109.148C151.242 112.53 150.618 116.087 150.029 119.886C149.839 121.152 149.648 122.453 149.458 123.772C149.285 125.021 149.111 126.287 148.938 127.588C146.687 144.919 155.33 147.92 150.999 154.39C150.203 155.587 149.267 156.073 148.193 156.073C145.89 156.073 142.98 153.853 139.429 151.684C138.788 151.303 138.13 150.904 137.455 150.539C136.589 150.071 135.688 149.62 134.77 149.221C133.298 148.596 131.739 148.093 130.093 147.833C129.747 147.781 129.383 147.729 129.019 147.694C128.379 147.642 127.755 147.59 127.149 147.538C126.265 147.469 125.399 147.417 124.551 147.382C122.784 147.295 121.104 147.243 119.493 147.243C117.692 147.243 115.96 147.295 114.314 147.399C113.257 147.469 112.236 147.538 111.231 147.642C106.866 148.059 102.952 148.77 99.1064 149.568C98.2404 149.741 97.3743 149.932 96.5256 150.123C89.6493 151.597 82.6863 153.211 73.4024 153.731C68.362 154.009 63.8066 154.13 59.6843 154.13C59.5111 154.13 59.3206 154.13 59.1474 154.13H59.13C57.346 154.13 55.6659 154.096 54.0377 154.043C53.674 154.026 53.3276 154.026 52.9812 154.009C48.2872 153.835 44.2861 153.488 40.8047 153.037C38.1199 152.69 35.7643 152.274 33.6858 151.823C30.8799 151.216 28.5935 150.557 26.6709 149.897C25.7009 149.568 24.8349 149.238 24.0208 148.926C20.4527 147.538 18.4262 146.41 16.469 146.41C15.8454 146.41 15.2392 146.532 14.581 146.775C13.1261 147.347 11.2554 148.232 9.38477 148.995C8.76122 149.255 8.13767 149.481 7.53145 149.689C6.21507 150.14 4.95065 150.435 3.87676 150.435C2.68163 150.435 1.74631 150.053 1.244 149.065C0.135473 146.896 1.55578 143.635 3.44374 140.217C3.70355 139.749 3.98068 139.263 4.25782 138.795C6.1631 135.499 8.25892 132.185 8.76122 129.67C10.5799 120.51 7.58341 114.473 6.11114 100.717C5.95526 99.3288 5.83401 97.8716 5.71276 96.3277C5.69544 96.1368 5.67812 95.9287 5.67812 95.7378V95.7205C5.43563 92.1989 5.31438 88.2436 5.38367 83.6985C5.40099 82.5536 5.45295 81.374 5.53956 80.1943C5.69544 78.0432 5.93793 75.8227 6.26703 73.5675C6.38827 72.6481 6.54416 71.7286 6.70005 70.7919C7.06378 68.6061 7.46216 66.4029 7.9125 64.1477C8.03375 63.5058 8.17231 62.8466 8.29356 62.1874C8.79586 59.7414 9.31549 57.2433 9.83511 54.7452C10.043 53.7738 10.2335 52.8023 10.4413 51.8308C10.9436 49.3328 11.4459 46.8347 11.879 44.3366C12.0522 43.3305 12.2254 42.3416 12.3986 41.3355C14.4078 28.9145 14.9101 16.8058 10.1296 6.76152C8.57069 3.5522 9.29817 0.967391 12.2947 0.967391ZM12.2947 0.100006C10.4067 0.100006 9.47137 0.967392 9.00371 1.67865C8.15499 3.01442 8.27624 4.95736 9.31549 7.12582C14.4078 17.7947 13.178 30.9442 11.5152 41.1967C11.3593 42.1508 11.1861 43.157 11.0129 44.1805C10.6145 46.4184 10.1642 48.795 9.5753 51.6574C9.38477 52.6288 9.17692 53.6176 8.96907 54.5718C8.84783 55.1963 8.70926 55.8035 8.58801 56.428C8.20695 58.2668 7.80858 60.1577 7.44484 62.0139L7.42752 62.1007C7.28895 62.7772 7.16771 63.4017 7.04646 63.9742C6.56148 66.4549 6.1631 68.6407 5.83401 70.6357C5.6608 71.6419 5.52223 72.5613 5.40099 73.4287C5.05457 75.8747 4.81208 78.0605 4.67352 80.1249V80.1596C4.58691 81.3566 4.53495 82.5536 4.51763 83.6812C4.46567 87.914 4.55227 91.8693 4.81208 95.7378V95.7552V95.7899C4.81208 95.894 4.8294 96.0154 4.8294 96.1195C4.8294 96.2062 4.84672 96.293 4.84672 96.3797C4.95065 97.8543 5.08922 99.3462 5.2451 100.803C5.76473 105.678 6.47488 109.564 7.09843 112.999C8.2416 119.227 9.05567 123.737 7.9125 129.496C7.4968 131.543 5.86865 134.336 4.27514 137.043C4.01533 137.476 3.75552 137.927 3.51303 138.361C3.20125 138.899 2.94144 139.367 2.69895 139.801C0.75902 143.271 -0.834489 146.862 0.48189 149.464C0.914909 150.296 1.85023 151.303 3.87676 151.303C4.93333 151.303 6.21506 151.042 7.80858 150.505C8.38016 150.314 9.00371 150.071 9.71386 149.793C10.6492 149.412 11.5672 149.013 12.4679 148.614C13.3512 148.232 14.1826 147.85 14.9101 147.573C15.447 147.365 15.9493 147.26 16.4863 147.26C17.768 147.26 19.1364 147.833 21.2322 148.7C21.9597 149.013 22.791 149.36 23.7264 149.707C24.6617 150.071 25.5451 150.4 26.4111 150.678C28.6628 151.441 30.9838 152.083 33.5299 152.638L33.6165 152.656C35.8336 153.124 38.2239 153.54 40.7181 153.87H40.77C44.4767 154.356 48.5817 154.685 52.9638 154.841C53.3103 154.859 53.674 154.859 54.0204 154.876C55.6832 154.928 57.4153 154.946 59.13 154.963H59.1474C59.3206 154.963 59.5111 154.963 59.6843 154.963C63.9452 154.963 68.5872 154.824 73.437 154.547C82.2186 154.061 88.9218 152.604 95.4171 151.198C95.8501 151.112 96.2658 151.008 96.6988 150.921C97.6341 150.713 98.4828 150.539 99.2796 150.383C102.657 149.689 106.71 148.909 111.3 148.475C112.322 148.371 113.361 148.301 114.349 148.232C116.029 148.128 117.761 148.076 119.476 148.076C121.104 148.076 122.784 148.128 124.481 148.215H124.499C125.295 148.249 126.161 148.301 127.062 148.371C127.668 148.423 128.292 148.475 128.933 148.527C129.262 148.562 129.591 148.596 129.937 148.648C131.392 148.874 132.847 149.325 134.406 149.984C135.238 150.348 136.104 150.765 137.022 151.268C137.61 151.58 138.217 151.944 138.962 152.395C139.654 152.812 140.33 153.245 140.988 153.662C143.725 155.397 146.08 156.906 148.176 156.906C149.596 156.906 150.792 156.212 151.71 154.841C153.979 151.441 153.009 148.787 151.796 145.404C150.462 141.709 148.609 136.661 149.787 127.658C149.943 126.461 150.116 125.212 150.307 123.841C150.48 122.575 150.67 121.308 150.878 119.973C151.502 116 152.125 112.322 152.68 109.252L152.697 109.182C152.87 108.228 153.043 107.274 153.199 106.337C153.58 104.221 153.944 102.209 154.273 100.214C154.585 98.4441 154.845 96.8307 155.087 95.2695C155.347 93.6388 155.555 92.1989 155.728 90.8458C156.092 88.1396 156.352 85.6241 156.525 83.1781V83.1434C156.594 82.2413 156.646 81.4087 156.681 80.628C156.975 74.6951 156.75 68.8663 156.005 62.7946C155.971 62.517 155.936 62.2394 155.901 61.9445L155.884 61.8751C155.278 57.278 154.394 52.5247 153.165 47.3378C152.974 46.5571 152.783 45.7938 152.593 45.0132C152.073 42.9662 151.502 40.815 150.878 38.5945C150.722 38.0394 150.584 37.4843 150.462 36.9465C150.255 36.0444 150.099 35.1077 149.96 34.1709C149.215 28.6543 149.908 23.0337 151.744 19.8417C154.325 15.3139 155.208 11.9832 154.429 9.69328C154.013 8.47894 153.165 7.59421 151.883 7.05643C151.259 6.79622 150.532 6.62274 149.7 6.536C149.319 6.50131 148.921 6.46661 148.523 6.46661C148.488 6.46661 148.453 6.46661 148.401 6.46661C147.033 6.46661 145.422 6.67478 143.638 7.05643C142.911 7.21256 142.166 7.40339 141.421 7.61156C140.001 8.01056 138.546 8.51364 137.074 9.08611C136.156 9.45041 135.151 9.72798 134.094 9.93615L134.042 9.9535C133.09 10.127 132.085 10.2484 131.029 10.3005C130.596 10.3178 130.163 10.3351 129.712 10.3351C127.703 10.3351 125.469 10.127 122.888 9.69328C122.056 9.5545 121.208 9.39837 120.272 9.20755C118.558 8.86059 116.86 8.4616 115.232 8.07995C113.846 7.75034 112.547 7.45543 111.266 7.17787C108.91 6.67478 106.814 6.24109 104.909 5.84209C104.216 5.70331 103.489 5.54718 102.605 5.3737C93.0441 3.44811 81.7683 1.47048 70.5444 1.24496C69.8343 1.22761 69.1068 1.22761 68.3793 1.22761C67.9463 1.22761 67.496 1.22761 67.0456 1.24496C63.1658 1.297 59.3379 1.55721 55.6486 2.04295H55.6139C54.8691 2.14703 54.0897 2.25112 53.3449 2.37256C48.3392 3.17055 43.3508 4.41958 38.501 6.06761C38.016 6.24109 37.5484 6.39722 37.098 6.55335C34.2747 7.54217 32.2482 8.25342 30.2217 8.25342C29.5808 8.25342 28.9746 8.18403 28.351 8.0279L28.2991 8.01056C28.0046 7.94117 27.7101 7.85443 27.433 7.75034C26.7229 7.49013 25.9954 7.14317 25.1986 6.67478C24.5058 6.25844 23.7783 5.75536 22.9989 5.14819C20.8511 3.50016 18.8419 2.21643 17.0406 1.36639C15.2219 0.533699 13.6284 0.100006 12.2947 0.100006Z" fill="#AC5A6D"/>
<path d="M43.7665 56.6362C46.278 51.2063 49.5863 46.2275 53.9511 42.8968C58.1081 39.7048 62.9579 38.369 67.8251 39.2885C72.6056 40.1905 76.728 43.3652 78.4427 49.1246C80.2787 55.3004 80.0709 62.5691 77.7499 68.5193C75.5848 74.0879 71.6876 78.4249 67.0976 80.8882C64.7593 82.1373 62.1439 82.9526 59.5977 82.9873C56.7571 83.022 54.4534 81.6342 52.5655 79.0494C49.7595 75.1982 48.7203 69.6816 49.6209 64.6681C50.5736 59.3597 53.8645 53.7564 58.4026 52.5768C63.287 51.2931 67.8944 58.7352 66.2835 64.2865C64.7766 69.4908 58.1774 72.2144 55.0943 67.5132C54.4015 66.455 54.2109 65.0671 54.54 63.7834C54.8518 62.5691 53.4662 61.9619 52.9292 62.9507C51.1971 66.1427 52.5482 70.2021 55.0597 72.0409C57.7617 74.0359 61.2259 73.8277 64.0145 72.2144C66.5087 70.7572 68.6045 67.8428 69.28 64.512C69.9902 60.9557 69.1588 57.1739 67.3921 54.2769C65.4695 51.1369 62.4383 48.6215 59.1301 48.8991C55.943 49.1593 53.0331 51.4492 50.9027 54.2942C47.248 59.0822 45.7238 65.8478 46.7111 72.3011C47.8196 79.4484 52.3403 85.9364 58.4545 86.5609C64.5341 87.1681 70.9948 83.5771 75.3769 78.5636C80.0536 73.2206 82.7036 65.5355 82.5477 57.677C82.4092 50.2002 80.0709 42.3763 74.4416 38.716C69.5052 35.5414 63.5122 35.4893 58.316 37.7272C52.704 40.1385 48.2006 45.2387 44.9097 51.2063C44.0956 52.6982 43.3508 54.2422 42.658 55.8382C42.2596 56.7229 43.3508 57.5209 43.7665 56.6362Z" fill="#B16C7C"/>
<path d="M130.041 147.417C130.059 147.555 130.076 147.677 130.093 147.816C129.747 147.764 129.383 147.712 129.019 147.677C128.379 147.625 127.755 147.573 127.149 147.521C126.006 143.184 121.086 140.877 117.726 142.681C116.635 143.253 115.769 144.259 115.111 145.474C114.799 146.064 114.539 146.705 114.331 147.382C113.275 147.451 112.253 147.521 111.248 147.625C111.37 147 111.525 146.376 111.716 145.769C112.513 143.305 113.933 141.119 115.838 139.853C118.35 138.188 121.502 138.032 124.135 139.333C126.941 140.703 129.452 143.67 130.041 147.417Z" fill="#B16C7C"/>
<path d="M137.455 150.539C136.589 150.071 135.688 149.62 134.77 149.221C135.134 148.163 135.393 147.052 135.567 145.907C136.017 142.837 135.723 139.541 134.233 136.956C132.726 134.336 130.318 132.463 128.015 131.075C123.529 128.404 118.177 127.64 113.361 129.271C108.719 130.85 104.614 134.614 101.93 139.506C100.527 142.074 99.3662 145.005 99.1757 148.128C99.1757 148.197 99.1757 148.267 99.1584 148.336C99.141 148.735 99.141 149.151 99.141 149.55C98.275 149.724 97.409 149.915 96.5602 150.106C96.5256 149.637 96.5083 149.169 96.5083 148.718C96.5429 141.987 100.076 135.308 104.164 131.179C108.823 126.478 114.764 124.153 120.775 124.865C123.927 125.229 126.976 126.322 129.799 128.074C132.605 129.826 135.359 132.289 137.056 135.586C139.308 140.044 139.083 145.717 137.455 150.539Z" fill="#B16C7C"/>
<path d="M146.929 86.3181C149.822 86.3181 152.645 88.1569 154.879 90.7591C154.689 92.2163 154.481 93.6908 154.238 95.1654C152.42 92.2857 149.77 89.8049 147.016 89.8049C146.132 89.8049 145.249 90.0652 144.366 90.655C140.174 93.448 138.199 100.439 141.975 104.828C143.309 106.389 145.145 107.309 146.998 107.291C147.449 107.291 147.882 107.222 148.332 107.118C150.549 106.511 152.801 104.256 151.987 101.168C151.692 100.057 152.818 99.4676 153.424 100.109C152.922 103.007 152.385 105.99 151.831 109.13C150.463 110.275 148.748 110.848 147.085 110.882C147.016 110.882 146.964 110.882 146.894 110.882C144.019 110.865 141.144 109.234 139.273 106.545C137.333 103.752 136.571 100.214 137.229 96.6052C137.905 92.9449 140.018 89.6488 142.634 87.7579C144.054 86.7691 145.509 86.3181 146.929 86.3181Z" fill="#B16C7C"/>
<path d="M155.832 80.6107C155.797 81.4607 155.745 82.3108 155.676 83.1434C153.719 81.0444 151.519 79.3096 149.094 78.1126C148.263 77.6963 147.379 77.3493 146.496 77.0891C142.859 75.9962 138.875 76.187 135.376 77.731C124.845 82.3454 125.018 100.578 130.786 110.067C133.731 114.907 138.199 118.325 142.963 119.73C144.088 120.059 145.284 120.337 146.496 120.389C147.709 120.458 148.921 120.32 150.047 119.851C149.856 121.118 149.666 122.419 149.475 123.737C148.436 123.98 147.362 124.032 146.288 123.98C145.249 123.928 144.21 123.754 143.188 123.529C137.229 122.124 131.808 117.908 128.205 111.906C124.343 105.47 123.148 97.0563 124.533 89.3019C125.226 85.4854 126.56 81.7209 128.864 78.9626C130.786 76.6728 133.263 75.1635 135.844 74.3482C139.291 73.2553 142.893 73.3593 146.323 74.4349C148.332 75.0768 150.289 76.0482 152.091 77.332C153.424 78.3208 154.671 79.3963 155.832 80.6107Z" fill="#B16C7C"/>
<path d="M113.171 42.8968C112.132 41.2487 110.313 41.0406 108.927 42.1682C107.403 43.4172 106.901 45.9847 107.403 48.0664C108.494 52.7156 113.015 54.8493 116.341 52.2992C119.684 49.7318 120.827 44.4234 119.268 40.0691C117.761 35.8363 114.245 32.4361 110.382 32.6616C101.289 33.1994 98.9332 47.5807 101.531 56.2198C102.536 59.5853 104.268 62.5864 106.901 64.2865C110.105 66.3509 113.916 66.1947 117.345 65.0845C121.866 63.6099 125.78 60.1924 127.703 54.8493C129.522 49.8012 129.383 43.7815 127.097 39.0109C126.594 37.9527 125.278 38.6639 125.503 39.8436C126.179 43.4346 126.698 47.1817 126.023 50.8247C125.347 54.5024 123.477 57.9199 120.844 59.9322C116.462 63.263 109.845 64.6681 105.74 60.0363C103.783 57.8331 102.726 54.9014 102.293 51.7094C101.705 47.4245 102.155 42.8274 104.112 39.1497C106.121 35.3852 109.482 33.529 113.102 34.275C116.722 35.0383 118.8 39.3752 118.627 43.6601C118.471 47.8409 115.163 52.5074 111.525 50.79C109.967 50.044 108.564 48.2225 108.702 46.0367C108.858 43.556 111.092 41.9427 112.824 43.4866C113.119 43.7468 113.361 43.1917 113.171 42.8968Z" fill="#B16C7C"/>
<path d="M46.3127 22.0969C46.0182 26.6073 43.0737 29.6778 39.7481 30.8922C37.8082 31.6034 35.7297 31.881 33.7205 32.0371C31.7459 32.1759 29.754 31.9677 27.9353 30.9095C24.9215 29.14 22.7564 25.1848 22.1675 21.1948C21.5786 17.2569 22.3234 13.2496 23.7437 9.69328C24.0555 8.91263 24.3846 8.16668 24.7656 7.43808C25.6143 7.94116 26.3938 8.32281 27.1559 8.58303C27.0173 8.82589 26.8961 9.08611 26.7748 9.34633C24.0382 14.9149 22.8084 22.5479 26.9654 27.5788C29.4422 30.5626 32.8025 30.3891 36.0241 29.9554C39.0206 29.5564 42.2769 28.6023 44.0783 25.3756C45.7931 22.3224 46.0529 17.9855 43.9917 15.0884C42.1384 12.4863 38.7435 11.5668 36.18 12.9373C33.7205 14.2557 32.3002 17.465 33.5992 20.5356C34.1708 21.8714 35.2967 22.8602 36.5438 22.8081C38.2066 22.7561 39.4363 20.5529 38.6049 18.662C38.449 18.2977 38.8301 17.9161 39.0726 18.211C40.2677 19.6682 40.1638 21.9234 38.986 23.3459C37.6869 24.9072 35.5565 24.9072 34.0669 23.8143C30.8279 21.455 30.3256 15.9905 33.0623 12.8332C35.5565 9.97084 39.3844 9.58919 42.2077 11.9311C44.9097 14.1516 46.5552 18.0896 46.3127 22.0969Z" fill="#B16C7C"/>
<path d="M151.779 45.2561C151.969 46.0367 152.16 46.8 152.35 47.5633C150.982 47.5286 149.648 48.2572 148.8 49.9053C148.107 51.2584 148.055 53.1319 148.904 54.3983C149.804 55.7167 151.571 55.6473 152.454 54.3463C152.645 54.0687 153.061 54.3636 152.957 54.7106C152.368 56.5147 150.844 57.3474 149.337 56.7402C147.622 56.0637 146.652 53.7217 146.791 51.6053C146.998 48.1184 149.215 45.5857 151.779 45.2561Z" fill="#B16C7C"/>
<path d="M155.156 62.916C154.464 63.5232 153.719 64.0089 152.905 64.3732C150.185 65.5876 147.362 64.4426 145.249 62.2915C144.729 61.7711 144.262 61.1812 143.846 60.5741C142.634 58.7873 141.698 56.7576 140.832 54.7106C139.914 52.5247 139.152 50.1828 139.135 47.7021C139.1 43.4692 141.127 39.4793 143.829 37.0333C144.556 36.374 145.336 35.8363 146.132 35.4199C147.085 34.9168 148.107 34.5699 149.129 34.3444C149.25 35.2811 149.423 36.2353 149.648 37.1894C148.609 37.3802 147.587 37.7098 146.617 38.2129C146.132 38.4731 145.647 38.7854 145.197 39.1323C143.309 40.5722 141.698 42.7753 141.057 45.3601C140.105 49.246 141.664 52.9411 143.205 56.2545C143.725 57.3648 144.296 58.4577 144.955 59.4465C146.167 61.268 147.691 62.7078 149.666 63.1762C151.502 63.6099 153.511 63.2109 155.087 61.9966C155.087 62.3088 155.122 62.6211 155.156 62.916Z" fill="#B16C7C"/>
<path d="M101.323 22.0795C98.8119 26.1909 95.036 28.8451 90.879 29.3829C86.9819 29.886 83.05 28.29 80.2614 24.8725C77.542 21.5244 75.8792 16.3548 76.9704 11.6362C78.1656 6.46661 82.5997 5.16554 86.4449 4.83593C88.558 4.64511 90.8964 4.78389 92.7324 6.22375C94.3432 7.47278 95.6076 9.71063 95.573 12.122C95.5037 17.0314 89.9091 21.2642 86.393 18.7488C84.8514 17.6559 83.7948 15.2445 84.4011 13.0761C84.9207 11.1852 86.6874 9.93615 88.2636 10.5433C88.8179 10.7515 88.5927 11.7577 88.0211 11.6015C86.9472 11.324 86.1158 12.3822 85.9426 13.6139C85.7867 14.6547 86.3756 15.5395 87.0858 16.0252C88.6793 17.1008 90.446 16.3895 91.7624 15.0364C93.1307 13.6139 93.7716 11.6883 92.5765 9.79737C91.3987 7.92382 89.3721 7.52482 87.5708 7.52482C84.886 7.52482 81.0062 7.81973 79.4646 11.0117C77.8711 14.3078 78.997 18.8702 80.7291 21.7152C82.5131 24.6123 85.3537 26.6246 88.3329 26.7808C91.3813 26.9369 94.5164 25.6358 96.8893 23.2592C100.821 19.3213 102.917 12.5383 102.432 6.24109C103.194 6.39722 103.956 6.55335 104.718 6.70948C104.736 6.91766 104.753 7.12583 104.753 7.31665C105.065 12.521 103.87 17.8987 101.323 22.0795Z" fill="#B16C7C"/>
<path d="M43.8185 149.932C42.9698 151.146 41.9652 152.274 40.822 153.02C38.1373 152.673 35.7816 152.257 33.7032 151.806C31.2436 148.128 32.5773 140.321 36.6996 139.35C38.4317 138.951 40.4236 139.784 41.1164 141.917C41.6707 143.6 41.1857 145.734 39.904 146.671C39.4017 147.052 39.0033 146.133 39.4536 145.717C40.9259 144.381 39.6442 141.553 37.9987 141.761C36.2147 141.987 35.1581 144.017 34.9329 146.029C34.7078 148.006 35.0195 150.314 36.7689 150.956C38.449 151.58 40.0945 150.557 41.307 149.169C42.5541 147.746 43.628 145.994 44.4767 144.19C45.3774 142.264 46.0529 139.974 45.3254 137.806C44.1649 134.336 40.7007 132.463 37.8428 132.307C34.7251 132.133 31.6766 133.591 29.5981 136.488C27.6236 139.229 26.515 142.976 26.4804 146.619C26.4631 147.712 26.5497 148.804 26.7056 149.88C25.7356 149.55 24.8696 149.221 24.0555 148.909C23.7264 144.953 24.4019 140.877 26.3591 137.251C28.5589 133.174 31.9884 130.416 35.9549 129.878C39.852 129.358 44.0956 131.11 46.4686 135.082C49.4131 140.027 46.6071 145.925 43.8185 149.932Z" fill="#B16C7C"/>
<path d="M54.4534 152.76C54.3322 153.176 54.1936 153.592 54.0551 154.009C53.6913 153.991 53.3449 153.991 52.9985 153.974C53.241 153.436 53.4662 152.881 53.6567 152.343C53.8645 151.806 54.6093 152.205 54.4534 152.76Z" fill="#B16C7C"/>
<path d="M13.6803 63.315C12.6411 65.0151 10.7358 66.0386 9.05567 65.1885C8.60533 64.963 8.20696 64.5814 7.87786 64.1303C7.99911 63.4885 8.13767 62.8293 8.25892 62.1701C8.50141 62.6731 8.93443 63.0721 9.43673 63.2803C10.1815 63.5926 10.961 63.1415 11.4459 62.4129C12.6064 60.6088 12.2427 58.3362 11.2901 56.5321C10.8744 55.7514 10.3721 55.1269 9.80047 54.7279C10.0083 53.7564 10.1988 52.7849 10.4067 51.8135C13.7323 53.5136 15.8974 59.6893 13.6803 63.315Z" fill="#B16C7C"/>
<path d="M18.3743 71.0348C15.4644 74.1226 11.1861 75.8748 7.44485 74.2267C7.01183 74.0359 6.61345 73.8104 6.26703 73.5502C6.38828 72.6307 6.54417 71.7113 6.70005 70.7745C6.78666 70.8613 6.87326 70.948 6.95986 71.0348C9.45406 73.2726 13.1953 72.2838 15.6376 70.4449C18.1837 68.502 20.1063 65.1365 20.4701 61.4588C20.8511 57.625 19.9504 53.6697 18.1664 50.5298C16.6422 47.8235 14.4078 45.7071 11.879 44.354C12.0522 43.3478 12.2254 42.359 12.3986 41.3528C18.0625 44.0591 22.462 50.1828 22.7564 58.1454C22.9123 62.9854 21.3881 67.8428 18.3743 71.0348Z" fill="#B16C7C"/>
<path d="M143.846 7.92383C143.794 8.132 143.742 8.34017 143.69 8.54834C143.049 10.977 141.923 13.1281 139.983 14.2037C138.044 15.2966 135.792 15.1925 133.869 14.0476C132.882 13.4577 131.895 12.4342 131.098 11.1852C132.154 11.1331 133.211 11.0117 134.233 10.8209C136.052 12.2954 138.477 12.4863 140.33 10.526C140.849 9.9882 141.3 9.2596 141.681 8.46161C142.408 8.27078 143.119 8.07996 143.846 7.92383Z" fill="#B16C7C"/>
<path d="M149.614 16.1466C148.956 17.413 148.159 18.558 147.275 19.5121C143.603 23.4847 138.407 25.445 133.557 25.4277C129.106 25.4103 124.551 23.6408 121.883 19.0437C120.376 16.4589 119.909 13.2496 120.117 10.0749C121 10.2484 121.883 10.4219 122.767 10.578C122.749 10.977 122.749 11.376 122.767 11.775C122.974 21.5418 132.432 23.0163 138.528 21.4724C141.767 20.657 144.885 18.8876 146.998 15.6783C148.055 14.0823 148.834 12.2608 149.25 10.3525C149.458 9.41574 149.596 8.44426 149.631 7.45544C150.341 7.52484 150.999 7.68097 151.571 7.92383C151.658 10.7515 150.896 13.6659 149.614 16.1466Z" fill="#B16C7C"/>
<path d="M96.8028 98.8604C96.9067 102.781 100.752 104.984 103.142 102.174C105.446 99.485 104.614 94.4021 102.744 91.7306C100.44 88.4345 96.6815 89.2845 94.4818 92.303C92.334 95.2695 91.7624 99.6584 92.767 103.388C93.8755 107.482 96.6295 110.761 99.8685 112.34C103.229 113.988 106.849 113.259 109.655 110.466C115.509 104.62 114.73 92.5632 110.521 85.7109C108.2 81.9464 104.649 79.6739 100.838 79.1361C96.0406 78.4596 91.468 80.3158 87.1378 82.6404C85.7521 83.3863 86.7394 86.3007 88.177 85.6762C93.5984 83.2996 99.9205 81.0791 105.48 84.0108C108.131 85.416 109.984 87.5151 111.023 90.8805C112.114 94.4368 112.495 98.4441 111.595 102.122C110.833 105.244 109.239 108.055 106.866 109.599C104.303 111.281 101.427 110.64 99.0025 108.887C96.6815 107.205 94.7416 104.394 94.118 101.133C93.5291 98.0798 94.4471 94.5756 96.5256 92.6847C97.7554 91.5571 99.4009 91.054 100.752 92.1642C101.895 93.101 102.588 94.7837 102.83 96.4144C103.09 98.1665 102.882 100.422 101.462 101.324C99.8859 102.347 98.0499 100.96 97.8593 98.8431C97.79 98.0625 96.7854 98.0104 96.8028 98.8604Z" fill="#B16C7C"/>
<path d="M73.8007 121.603C73.5929 119.626 72.1553 118.116 70.5098 118.238C68.5179 118.394 67.496 120.788 67.2535 122.939C66.959 125.541 67.2708 128.317 69.0029 130.052C70.5444 131.578 72.6749 131.995 74.5282 131.197C78.9277 129.306 80.6771 122.974 80.0882 117.717C79.43 111.871 76.0698 107.482 72.2938 104.082C67.5999 99.8666 62.1612 105.539 60.8968 107.708C58.1947 112.305 56.913 117.995 57.1728 123.65C57.4326 129.236 59.2513 134.579 62.2824 138.743C65.3828 142.976 70.0421 146.428 74.8054 146.081C79.7937 145.717 84.4184 141.692 86.6008 136.21C87.8652 133.035 88.4195 129.531 88.2982 125.992C88.2463 124.292 88.0557 122.557 87.7267 120.909C87.3629 119.157 86.6354 117.527 85.8907 115.965C85.4403 115.011 84.1413 115.636 84.4011 116.729C84.99 119.123 85.423 121.742 85.6308 124.223C85.8387 126.738 85.7348 129.288 85.2151 131.734C84.2971 136.054 81.9762 139.749 78.7372 141.831C71.601 146.445 63.9625 138.795 60.8102 131.231C57.346 122.904 59.0608 112.635 64.2916 106.025C64.8979 105.244 67.6519 103.249 70.0421 104.412C71.8608 105.296 73.2118 106.684 74.6321 108.367C77.5767 111.837 79.4646 116.815 78.8064 121.898C78.46 124.587 77.3515 127.259 75.4635 128.82C73.8181 130.173 71.6703 130.399 70.0075 128.976C68.1369 127.38 68.0676 123.893 68.795 121.482C69.1761 120.233 69.9902 119.244 71.1507 119.383C72.2246 119.522 73.1945 120.372 73.4543 121.673C73.5409 121.863 73.8354 121.829 73.8007 121.603Z" fill="#B16C7C"/>
<path d="M38.068 107.465C36.4225 113.502 32.3348 118.03 27.5716 120.285C22.6352 122.609 16.365 121.968 12.8143 116.694C9.22888 111.368 10.3894 104.134 13.0568 98.6176C14.2692 96.1195 15.8974 93.3265 18.3223 92.5459C20.8511 91.7305 23.4839 93.5 25.0254 95.894C26.4977 98.1665 27.2425 101.098 26.7402 103.978C26.2725 106.598 24.6444 108.575 22.5659 109.338C20.7126 110.015 18.4955 109.564 17.1272 107.795C15.6895 105.904 15.4124 102.538 17.4563 101.116C18.0798 100.682 18.9805 101.601 18.5128 102.399C17.4389 104.238 18.8246 106.372 20.4181 106.528C21.977 106.667 23.6051 105.626 24.1074 103.752C24.7137 101.48 23.8649 98.9472 22.5312 97.3338C21.8211 96.4665 20.8338 95.7205 19.8119 95.6164C18.7207 95.5297 17.8373 96.3624 17.1272 97.2818C14.5637 100.63 12.5372 106.303 13.4552 110.934C14.4424 115.948 18.6687 118.325 22.5659 118.047C30.9665 117.44 38.2758 107.101 35.6604 96.744C34.5519 92.3724 31.59 89.2845 28.3337 87.3242C26.6189 86.2834 24.7656 85.5721 22.895 85.0864C20.7818 84.5486 18.4782 84.1843 16.3477 84.7221C12.4852 85.7282 9.54066 89.6488 7.87786 93.8643C7.02914 96.0328 6.47488 98.3227 6.09382 100.682C5.93793 99.2941 5.81669 97.8369 5.69544 96.293C6.44024 93.1877 7.60073 90.2733 9.38477 87.7406C10.8917 85.5895 12.7796 83.9241 14.9447 82.9353C17.4909 81.7556 20.2622 81.9811 22.895 82.5016C27.433 83.4036 32.0577 85.7976 35.1581 90.0825C38.6569 94.8358 39.7308 101.393 38.068 107.465Z" fill="#B16C7C"/>
<path d="M9.38477 148.978C8.76122 149.238 8.13768 149.464 7.53145 149.672C7.53145 149.481 7.53145 149.273 7.53145 149.082C7.46217 145.023 5.78205 142.23 3.44374 140.217C3.70356 139.749 3.98069 139.263 4.25782 138.795C6.30167 140.391 7.87787 142.646 8.7439 145.456C9.10764 146.584 9.29817 147.781 9.38477 148.978Z" fill="#B16C7C"/>
<path d="M70.5271 2.1297C68.795 4.05529 66.7858 5.56454 64.4822 6.32784C60.6716 7.59422 56.376 6.53601 53.5008 3.23995C54.2456 3.11852 55.0077 3.01443 55.7525 2.91034C58.264 4.76655 61.503 4.97472 64.3263 3.77773C65.3136 3.36138 66.2316 2.78891 67.0803 2.095C68.2235 2.095 69.3666 2.095 70.5271 2.1297Z" fill="#B16C7C"/>
<path d="M77.9765 142.911C113.784 142.911 142.811 113.884 142.811 78.0765C142.811 42.2695 113.784 13.2421 77.9765 13.2421C42.1695 13.2421 13.1421 42.2695 13.1421 78.0765C13.1421 113.884 42.1695 142.911 77.9765 142.911Z" fill="url(#paint0_radial_949_5237)"/>
<path d="M78.5 143.1C114.122 143.1 143 114.222 143 78.6C143 42.9776 114.122 14.1 78.5 14.1C42.8776 14.1 14 42.9776 14 78.6C14 114.222 42.8776 143.1 78.5 143.1Z" fill="url(#paint1_radial_949_5237)"/>
<path d="M71.7137 101.765C71.7968 106.975 48.8767 109.719 53.6713 96.1662L50.3733 99.7692C50.3733 99.7692 52.2302 115.733 68.0553 108.804C76.7855 104.952 71.7137 101.765 71.7137 101.765Z" fill="#FBCB13" stroke="black" stroke-miterlimit="10" stroke-linecap="round" stroke-linejoin="round"/>
<path d="M52.1747 99.4643C52.1747 99.4643 49.9298 103.067 48.1284 102.263C46.2438 101.46 46.0497 98.0231 47.3801 96.4157C47.3801 96.4157 44.7194 94.8359 46.992 93.4779C47.6849 93.0899 48.6272 93.7827 48.6272 93.7827C48.6272 93.7827 48.1838 90.2075 50.2901 89.681C52.4242 89.2098 53.6159 91.7596 53.6159 91.7596C53.6159 91.7596 55.5005 90.7064 56.1934 91.6487C56.8862 92.591 55.1956 96.0277 55.1956 96.0277C55.1956 96.0277 56.4982 99.492 55.3896 100.019C54.3365 100.517 52.1747 99.4643 52.1747 99.4643Z" fill="#825826" stroke="black" stroke-miterlimit="10" stroke-linecap="round" stroke-linejoin="round"/>
<path d="M62.0135 100.878C59.7963 103.234 57.7454 111.742 61.3761 117.036C62.5401 118.754 48.0729 119.862 49.8467 125.433C51.6204 130.976 72.2957 126.902 70.91 121.442C69.5242 115.982 73.5429 114.541 76.2035 114.541C83.8528 114.513 65.0898 97.6074 62.0135 100.878Z" fill="#FCCA11" stroke="black" stroke-miterlimit="10" stroke-linecap="round" stroke-linejoin="round"/>
<path d="M91.8069 100.739C94.0241 103.095 96.3522 111.742 92.7215 117.008C91.5575 118.726 106.025 119.835 104.251 125.405C102.477 130.976 81.8019 126.874 83.1876 121.414C84.5734 115.982 79.1967 114.513 76.2589 114.513C70.2171 114.513 88.7029 97.4965 91.8069 100.739Z" fill="#FCCA11" stroke="black" stroke-miterlimit="10" stroke-linecap="round" stroke-linejoin="round"/>
<path d="M88.0654 71.2506C89.9778 71.3337 95.5207 74.6595 100.066 83.9163C105.47 95.0022 102.948 101.072 98.8742 100.434C96.3245 100.046 94.4399 94.0045 93.3313 91.7042C91.8901 88.6001 87.9269 82.5305 86.7628 79.6759C84.9614 75.2415 85.7097 71.1952 88.0654 71.2506Z" fill="#FCCA11" stroke="black" stroke-miterlimit="10" stroke-linecap="round" stroke-linejoin="round"/>
<path d="M104.279 89.8195L93.3867 96.2771C92.6107 96.6928 92.4721 97.94 93.0541 99.0763C93.6361 100.213 94.7724 100.795 95.5485 100.379L106.995 95.0022L104.279 89.8195Z" fill="#35597D" stroke="black" stroke-miterlimit="10" stroke-linecap="round" stroke-linejoin="round"/>
<path d="M107.272 87.1866L104.667 88.8218C103.447 89.4593 103.225 91.3993 104.14 93.1453C105.082 94.8914 106.801 95.806 108.02 95.1685L110.847 93.9491L107.272 87.1866Z" fill="#1B6976" stroke="black" stroke-miterlimit="10" stroke-linecap="round" stroke-linejoin="round"/>
<path d="M110.043 95.3348C112.952 95.3348 115.309 92.9772 115.309 90.069C115.309 87.1608 112.952 84.8032 110.043 84.8032C107.135 84.8032 104.778 87.1608 104.778 90.069C104.778 92.9772 107.135 95.3348 110.043 95.3348Z" fill="#7BBECE"/>
<path d="M112.565 94.8082C113.757 94.1708 114.45 92.9236 114.561 91.427C115.281 90.1521 115.448 88.7109 114.81 87.5192C114.173 86.3275 112.926 85.6346 111.429 85.5237C110.154 84.8031 108.713 84.6369 107.521 85.2743C106.33 85.9117 105.637 87.1589 105.526 88.6555C104.805 89.9304 104.639 91.3716 105.276 92.5633C105.914 93.755 107.161 94.4479 108.658 94.5588C109.932 95.3071 111.374 95.4456 112.565 94.8082ZM105.554 92.5633L106.33 92.1753C106.44 92.397 106.551 92.5633 106.69 92.7573C106.163 92.785 105.748 92.7296 105.554 92.5633ZM105.942 91.3161C106.025 91.5379 106.108 91.7319 106.219 91.9259L105.443 92.3139C105.415 92.0922 105.581 91.7319 105.942 91.3161ZM114.533 87.5469L113.757 87.9349C113.646 87.7132 113.535 87.5469 113.397 87.3529C113.951 87.3252 114.367 87.3806 114.533 87.5469ZM114.145 88.7941C114.062 88.5724 113.979 88.3784 113.868 88.1844L114.644 87.7963C114.672 87.9903 114.505 88.3784 114.145 88.7941ZM112.15 93.755C112.371 93.6442 112.538 93.5333 112.732 93.3947C112.815 93.9213 112.732 94.3371 112.565 94.5311L112.15 93.755ZM112.039 93.561L111.512 92.591C111.817 92.4247 112.122 92.2307 112.399 92.0367C112.51 92.4247 112.621 92.8127 112.649 93.1453C112.482 93.2839 112.261 93.4225 112.039 93.561ZM111.429 92.3693L110.93 91.427C111.291 91.233 111.651 91.039 111.983 90.8173C112.122 91.1776 112.233 91.4824 112.371 91.815C112.067 92.009 111.762 92.203 111.429 92.3693ZM110.099 89.9027L109.489 88.7664C109.877 88.5446 110.265 88.3784 110.625 88.2398C110.847 88.5724 111.041 88.9327 111.263 89.3207L110.099 89.9027ZM109.905 90.0135L108.768 90.6233C108.547 90.2353 108.38 89.8472 108.242 89.487C108.574 89.2652 108.935 89.0712 109.323 88.8495L109.905 90.0135ZM109.988 90.2353L110.598 91.3716C110.21 91.5933 109.822 91.7596 109.461 91.8981C109.24 91.5656 109.046 91.2053 108.824 90.8173L109.988 90.2353ZM110.21 90.0967L111.346 89.487C111.568 89.875 111.734 90.263 111.873 90.6233C111.54 90.845 111.18 91.039 110.792 91.2607L110.21 90.0967ZM112.177 90.7064C112.482 90.5124 112.759 90.3184 113.009 90.1244C113.12 90.4293 113.203 90.7618 113.258 91.0667C113.037 91.2884 112.787 91.4824 112.51 91.6764C112.427 91.3716 112.316 91.039 112.177 90.7064ZM112.067 90.5124C111.9 90.1244 111.734 89.7641 111.54 89.4038L112.482 88.9049C112.649 89.2375 112.815 89.5978 112.926 89.9027C112.676 90.0967 112.371 90.2907 112.067 90.5124ZM112.676 88.7941L113.646 88.2675C113.757 88.4892 113.868 88.7387 113.951 88.9604C113.729 89.1821 113.425 89.4592 113.12 89.7364C112.981 89.4315 112.843 89.0989 112.676 88.7941ZM113.563 88.0735L112.593 88.6001C112.427 88.2952 112.233 87.9904 112.039 87.7132C112.427 87.6023 112.815 87.4915 113.147 87.4638C113.286 87.6301 113.425 87.8241 113.563 88.0735ZM112.371 88.7109L111.429 89.2098C111.235 88.8495 111.041 88.4892 110.819 88.1566C111.18 88.0181 111.485 87.9072 111.817 87.7686C112.011 88.0458 112.205 88.3784 112.371 88.7109ZM110.709 87.9349C110.515 87.6301 110.321 87.3529 110.126 87.1035C110.431 86.9926 110.764 86.9095 111.069 86.854C111.291 87.0758 111.485 87.3252 111.679 87.6023C111.346 87.6578 111.013 87.7963 110.709 87.9349ZM110.487 88.0181C110.099 88.1844 109.738 88.3506 109.378 88.5446L108.879 87.6023C109.212 87.4361 109.572 87.2698 109.877 87.1589C110.099 87.4361 110.293 87.7132 110.487 88.0181ZM108.768 87.4083L108.242 86.4383C108.464 86.3275 108.713 86.2166 108.935 86.1335C109.156 86.3552 109.434 86.66 109.711 86.9649C109.434 87.1035 109.101 87.242 108.768 87.4083ZM108.159 86.2443L107.771 85.4683C108.02 85.4129 108.38 85.6069 108.796 85.9672C108.574 86.0226 108.353 86.1335 108.159 86.2443ZM107.965 86.3275C107.743 86.4383 107.577 86.5492 107.383 86.6878C107.3 86.1335 107.383 85.7454 107.549 85.5514L107.965 86.3275ZM108.076 86.5492L108.602 87.5192C108.297 87.6855 107.992 87.8795 107.715 88.0735C107.604 87.6855 107.494 87.2975 107.466 86.9649C107.632 86.8263 107.826 86.6878 108.076 86.5492ZM108.685 87.7132L109.184 88.6555C108.824 88.8495 108.464 89.0435 108.131 89.2652C107.992 88.9049 107.882 88.6001 107.743 88.2675C108.048 88.1012 108.353 87.9072 108.685 87.7132ZM107.937 89.4038C107.632 89.5978 107.355 89.7918 107.106 89.9858C106.995 89.681 106.912 89.3484 106.856 89.0435C107.078 88.8218 107.327 88.6278 107.604 88.4338C107.688 88.7387 107.798 89.0712 107.937 89.4038ZM107.992 89.6255C108.159 90.0135 108.325 90.3738 108.519 90.7341L107.577 91.233C107.41 90.9004 107.244 90.5401 107.133 90.2353C107.41 90.0135 107.688 89.8195 107.992 89.6255ZM107.383 91.3161L106.413 91.8427C106.302 91.621 106.191 91.3716 106.108 91.1498C106.33 90.9281 106.634 90.651 106.939 90.3738C107.078 90.6787 107.216 90.9836 107.383 91.3161ZM106.551 92.0367L107.521 91.5101C107.688 91.815 107.882 92.1199 108.076 92.397C107.688 92.5079 107.3 92.6187 106.967 92.6464C106.801 92.5079 106.662 92.2584 106.551 92.0367ZM107.715 91.427L108.658 90.9281C108.852 91.2884 109.046 91.6487 109.267 91.9813C108.907 92.1199 108.602 92.2307 108.27 92.3693C108.103 92.0644 107.882 91.7319 107.715 91.427ZM109.378 92.203C109.572 92.5079 109.766 92.785 109.96 93.0345C109.655 93.1453 109.323 93.2285 109.018 93.2839C108.796 93.0622 108.602 92.8127 108.408 92.5356C108.741 92.4524 109.046 92.3139 109.378 92.203ZM109.6 92.0921C109.988 91.9259 110.348 91.7596 110.709 91.5656L111.207 92.5079C110.875 92.6742 110.515 92.8404 110.21 92.9513C110.016 92.6742 109.794 92.397 109.6 92.0921ZM111.318 92.7019L111.845 93.6719C111.623 93.7828 111.374 93.8936 111.152 93.9768C110.93 93.755 110.653 93.4502 110.376 93.1453C110.681 93.0067 111.013 92.8682 111.318 92.7019ZM111.928 93.8659L112.316 94.6419C112.067 94.6973 111.706 94.5033 111.291 94.143C111.512 94.0599 111.734 93.9768 111.928 93.8659ZM112.926 93.2562C113.092 93.1453 113.258 93.0067 113.425 92.8682C113.369 93.3947 113.203 93.8659 112.953 94.1985C112.981 93.949 112.981 93.6165 112.926 93.2562ZM112.898 92.979C112.815 92.6464 112.732 92.2862 112.621 91.8704C112.87 91.6764 113.12 91.4824 113.341 91.2884C113.425 91.7041 113.452 92.1199 113.425 92.4802C113.286 92.6742 113.092 92.8405 112.898 92.979ZM113.535 91.1221C113.813 90.845 114.062 90.5401 114.284 90.2353C114.339 90.6233 114.367 91.0113 114.339 91.3716C114.145 91.6764 113.923 91.9813 113.646 92.2862C113.646 91.8981 113.591 91.5378 113.535 91.1221ZM113.452 90.845C113.369 90.5678 113.286 90.263 113.203 89.9581C113.535 89.7087 113.813 89.4592 114.034 89.2098C114.117 89.4315 114.173 89.681 114.228 89.9027C114.034 90.2353 113.757 90.5401 113.452 90.845ZM114.228 89.0158C114.45 88.7386 114.644 88.4892 114.755 88.2398C114.783 88.6555 114.672 89.1267 114.395 89.6255C114.367 89.4315 114.311 89.2375 114.228 89.0158ZM113.258 87.1866C113.147 87.0203 113.009 86.854 112.87 86.6878C113.397 86.7432 113.868 86.9095 114.201 87.1589C113.923 87.1035 113.591 87.1312 113.258 87.1866ZM112.981 87.2143C112.649 87.2975 112.288 87.3806 111.873 87.4915C111.679 87.242 111.485 86.9926 111.291 86.7709C111.706 86.6878 112.122 86.66 112.482 86.6878C112.676 86.854 112.843 87.0203 112.981 87.2143ZM111.124 86.5769C110.847 86.2997 110.542 86.0503 110.237 85.8286C110.625 85.7732 111.013 85.7454 111.374 85.7732C111.679 85.9672 111.983 86.1889 112.288 86.466C111.928 86.4383 111.512 86.4937 111.124 86.5769ZM110.875 86.6323C110.598 86.7155 110.293 86.7986 109.988 86.8818C109.738 86.5492 109.489 86.272 109.24 86.0503C109.461 85.9672 109.711 85.9117 109.932 85.8563C110.237 86.078 110.57 86.3275 110.875 86.6323ZM109.046 85.8563C108.768 85.6346 108.519 85.4406 108.27 85.3297C108.685 85.302 109.156 85.4129 109.655 85.69C109.434 85.7454 109.212 85.8009 109.046 85.8563ZM107.161 86.854C106.995 86.9649 106.828 87.1035 106.662 87.242C106.718 86.7155 106.884 86.2443 107.133 85.9117C107.106 86.1612 107.106 86.4937 107.161 86.854ZM107.216 87.1035C107.3 87.4361 107.383 87.7963 107.494 88.2121C107.244 88.4061 106.995 88.6001 106.773 88.7941C106.69 88.3784 106.662 87.9626 106.69 87.6023C106.828 87.4361 107.022 87.2698 107.216 87.1035ZM106.579 88.9881C106.302 89.2652 106.052 89.5701 105.831 89.875C105.775 89.487 105.748 89.0989 105.775 88.7386C105.969 88.4338 106.191 88.1289 106.468 87.8241C106.44 88.1844 106.468 88.5724 106.579 88.9881ZM106.607 89.2375C106.69 89.5147 106.773 89.8195 106.856 90.1244C106.524 90.3738 106.246 90.6233 106.025 90.8727C105.942 90.651 105.886 90.4015 105.831 90.1798C106.052 89.875 106.302 89.5424 106.607 89.2375ZM105.858 91.0944C105.637 91.3716 105.443 91.621 105.332 91.8704C105.304 91.4547 105.415 90.9836 105.692 90.4847C105.72 90.6787 105.803 90.8727 105.858 91.0944ZM106.828 92.9513C106.939 93.1176 107.078 93.2839 107.216 93.4502C106.69 93.3947 106.219 93.2285 105.886 92.979C106.163 92.979 106.468 92.979 106.828 92.9513ZM107.106 92.8959C107.438 92.8127 107.798 92.7296 108.214 92.6187C108.408 92.8682 108.602 93.1176 108.796 93.3393C108.38 93.4225 107.965 93.4502 107.604 93.4225C107.41 93.2562 107.244 93.0899 107.106 92.8959ZM108.962 93.561C109.24 93.8382 109.544 94.0876 109.849 94.3093C109.461 94.3648 109.073 94.3925 108.713 94.3648C108.408 94.1708 108.103 93.949 107.798 93.6719C108.186 93.6719 108.574 93.6165 108.962 93.561ZM109.24 93.4779C109.517 93.3947 109.822 93.3116 110.126 93.2285C110.376 93.561 110.625 93.8382 110.875 94.0599C110.653 94.143 110.404 94.1985 110.182 94.2539C109.849 94.0322 109.544 93.7828 109.24 93.4779ZM111.069 94.2539C111.346 94.4756 111.595 94.6696 111.845 94.7805C111.429 94.8082 110.958 94.6973 110.459 94.4202C110.681 94.3648 110.875 94.3093 111.069 94.2539ZM113.397 93.8659C113.535 93.5056 113.619 93.0899 113.646 92.6464C113.868 92.4247 114.09 92.1753 114.256 91.9259C114.145 92.6464 113.868 93.3116 113.397 93.8659ZM114.589 90.9281C114.589 90.6233 114.533 90.2907 114.505 89.9581C114.727 89.5701 114.893 89.1821 114.977 88.8218C115.032 89.487 114.893 90.2353 114.589 90.9281ZM113.84 86.7155C113.48 86.5769 113.064 86.4938 112.621 86.466C112.399 86.2443 112.15 86.0226 111.9 85.8563C112.649 85.9672 113.314 86.2443 113.84 86.7155ZM110.903 85.5237C110.598 85.5237 110.265 85.5792 109.932 85.6069C109.544 85.3852 109.156 85.2189 108.796 85.1357C109.489 85.0526 110.237 85.2189 110.903 85.5237ZM106.69 86.272C106.551 86.6323 106.468 87.048 106.44 87.4915C106.219 87.7132 105.997 87.9626 105.831 88.2121C105.942 87.4638 106.246 86.7709 106.69 86.272ZM105.526 89.1821C105.526 89.487 105.581 89.8195 105.609 90.1521C105.387 90.5401 105.221 90.9281 105.138 91.2884C105.055 90.6233 105.193 89.9027 105.526 89.1821ZM106.246 93.4225C106.607 93.561 107.022 93.6442 107.466 93.6719C107.688 93.8936 107.937 94.1153 108.186 94.2816C107.466 94.1708 106.773 93.8659 106.246 93.4225ZM109.184 94.5865C109.489 94.5865 109.822 94.5311 110.154 94.5033C110.542 94.7251 110.93 94.8913 111.291 94.9745C110.598 95.0576 109.877 94.9191 109.184 94.5865Z" fill="#1A6976"/>
<path d="M110.043 95.3348C112.952 95.3348 115.309 92.9772 115.309 90.069C115.309 87.1608 112.952 84.8032 110.043 84.8032C107.135 84.8032 104.778 87.1608 104.778 90.069C104.778 92.9772 107.135 95.3348 110.043 95.3348Z" stroke="black" stroke-miterlimit="10" stroke-linecap="round" stroke-linejoin="round"/>
<path d="M111.706 95.6951C111.928 95.6119 112.843 95.1131 112.87 95.0854C111.429 94.2816 109.932 92.7296 108.852 90.6787C107.771 88.6278 107.327 86.5215 107.494 84.8586C107.438 84.8863 106.496 85.3297 106.33 85.4683C106.191 87.1035 106.662 89.2098 107.743 91.2607C108.796 93.3393 110.265 94.9191 111.706 95.6951Z" fill="#1B6976" stroke="black" stroke-miterlimit="10" stroke-linecap="round" stroke-linejoin="round"/>
<path d="M55.1402 86.1335C57.8286 86.6046 63.9258 82.4474 66.6142 80.2025C73.5983 74.3824 72.462 73.1629 68.9699 71.306C65.0898 69.2551 59.0757 75.4633 55.5282 76.849C49.8744 79.0662 50.1515 85.2466 55.1402 86.1335Z" fill="#FCCA11" stroke="black" stroke-miterlimit="10" stroke-linecap="round" stroke-linejoin="round"/>
<path d="M56.0825 85.8286C52.2301 85.9394 43.306 80.4519 42.0865 77.4033C40.8393 74.2715 43.3337 71.0012 47.186 73.0243C51.1493 75.0752 53.311 77.1538 55.5836 77.2093C58.7986 77.3201 60.794 85.69 56.0825 85.8286Z" fill="#FCCA11"/>
<path d="M56.0825 86.1612C52.2301 86.272 43.306 80.4796 42.0865 77.4033C40.8393 74.2715 43.3337 71.0012 47.186 73.0243C51.1493 75.0752 53.2279 76.7936 55.5282 76.8767" stroke="black" stroke-miterlimit="10" stroke-linecap="round" stroke-linejoin="round"/>
<path d="M76.8964 67.7585C86.3749 67.7585 88.8969 74.4101 89.9501 80.9785C90.7815 86.2166 92.583 94.5311 91.6407 100.85C91.419 102.43 91.0032 103.899 90.3658 105.174C87.1509 111.576 81.6356 114.513 76.2312 114.513C70.7714 114.513 65.8104 111.382 63.3161 105.174C62.7895 103.899 62.3461 102.513 62.0135 100.989C60.9881 96.1385 61.0158 89.681 63.3992 80.2856C65.5056 71.9435 69.1916 67.7585 76.8964 67.7585Z" fill="#FCCA11"/>
<path d="M89.3958 78.2625C89.6175 79.1493 89.7838 80.0916 89.9224 81.0062C90.7538 86.2443 92.5553 94.5588 91.613 100.878" stroke="black" stroke-miterlimit="10" stroke-linecap="round" stroke-linejoin="round"/>
<path d="M62.0135 100.989C60.9881 96.1385 61.0158 89.681 63.3993 80.2856C63.5933 79.5928 63.7873 78.8999 63.9536 78.2625" stroke="black" stroke-miterlimit="10" stroke-linecap="round" stroke-linejoin="round"/>
<path d="M103.78 54.8434C107.771 66.0956 96.9065 73.4401 94.523 74.1884C92.1673 74.9644 87.622 72.0266 87.622 72.0266C86.2086 75.5187 83.9914 77.819 79.8619 79.1216C75.7324 80.4242 70.3834 75.6018 70.3834 75.6018C70.3834 75.6018 66.4756 77.1538 62.9835 77.2093C59.4083 77.2093 58.7709 72.6918 57.3851 71.0843C55.9994 69.5045 52.4519 69.5045 49.7358 66.8716C47.0475 64.211 48.0729 60.8298 48.5441 58.5849C47.4632 57.1437 45.3292 55.176 45.3292 52.6262C45.3292 46.3349 48.9044 45.1432 50.0684 44.284C50.0684 44.3117 75.2058 39.2399 103.78 54.8434Z" fill="#825826" stroke="black" stroke-miterlimit="10" stroke-linecap="round" stroke-linejoin="round"/>
<path d="M103.78 54.8434C103.78 54.8434 109.156 51.7116 106.136 46.5289C103.142 41.3463 100.288 41.18 99.2068 40.1268C98.0705 38.9905 98.514 33.0041 93.9687 32.1726C89.3958 31.3412 85.8483 35.443 85.8483 35.443C85.8483 35.443 85.0723 29.9 80.6102 30.0386C76.1481 30.1495 75.2335 33.5861 75.2335 33.5861C75.2335 33.5861 72.268 28.9577 67.9445 29.0132C63.6487 29.0963 60.8772 33.4752 60.8772 33.4752C60.8772 33.4752 57.7177 30.0109 53.2556 33.6693C48.7935 37.3276 48.9321 41.9283 50.0961 44.3395C50.0684 44.3118 68.6373 60.9684 103.78 54.8434Z" fill="#825826"/>
<path d="M103.78 54.8434C103.78 54.8434 109.156 51.7116 106.136 46.5289C103.142 41.3463 100.288 41.18 99.2068 40.1268C98.0705 38.9905 98.514 33.0041 93.9687 32.1726C89.3958 31.3412 85.8483 35.443 85.8483 35.443C85.8483 35.443 85.0723 29.9 80.6102 30.0386C76.1481 30.1495 75.2335 33.5861 75.2335 33.5861C75.2335 33.5861 72.268 28.9577 67.9445 29.0132C63.6487 29.0963 60.8772 33.4752 60.8772 33.4752C60.8772 33.4752 57.7177 30.0109 53.2556 33.6693C48.7935 37.3276 48.9321 41.9283 50.0961 44.3395" stroke="black" stroke-miterlimit="10" stroke-linecap="round" stroke-linejoin="round"/>
<path d="M94.2459 44.9492C93.0264 44.7552 90.1995 47.1941 88.7029 48.4135C86.9291 45.4481 86.4026 42.926 81.8296 41.0691C79.5293 40.1268 77.617 43.12 76.4529 43.12C75.2889 43.0369 73.4874 40.598 71.0762 41.5403C68.5819 42.4826 67.0576 46.4735 65.4224 47.1941C63.815 47.887 57.4683 41.956 55.6391 43.6189C53.8653 45.254 53.893 53.9288 64.0644 51.6285C64.0644 51.6285 59.8794 61.7167 62.8449 65.0424C65.8104 68.4514 68.1939 66.6776 72.6283 70.918C73.626 71.9157 73.626 74.1606 80.5824 72.858C82.9382 72.4423 80.9427 71.6109 88.4535 68.5068C92.8878 66.7608 93.2758 59.7766 90.8369 53.0696C96.3799 51.6007 97.2945 52.4876 98.4585 51.6007C101.424 49.4113 95.8533 45.1709 94.2459 44.9492Z" fill="#FCCA11" stroke="black" stroke-miterlimit="10" stroke-linecap="round" stroke-linejoin="round"/>
<path d="M71.0763 66.1511C71.0763 66.1511 72.2957 67.8971 74.0695 67.3982C75.8432 66.8716 76.6747 66.4559 76.5638 64.1002C76.5638 64.1002 77.3952 67.814 79.363 67.4537C81.4139 67.1488 82.0513 66.6776 82.0513 66.6776" stroke="black" stroke-miterlimit="10" stroke-linecap="round" stroke-linejoin="round"/>
<path d="M76.5638 64.1279C76.5638 64.1279 79.4739 62.1324 79.2521 61.4118C79.0859 60.719 74.7901 60.5249 74.1803 61.4118C73.5706 62.2987 76.5638 64.1279 76.5638 64.1279Z" fill="#AE776D" stroke="black" stroke-miterlimit="10" stroke-linecap="round" stroke-linejoin="round"/>
<path d="M71.5751 57.1437C72.7537 57.1437 73.7092 55.7168 73.7092 53.9565C73.7092 52.1963 72.7537 50.7693 71.5751 50.7693C70.3965 50.7693 69.4411 52.1963 69.4411 53.9565C69.4411 55.7168 70.3965 57.1437 71.5751 57.1437Z" fill="#060808"/>
<path d="M70.9377 54.3168C71.4122 54.3168 71.7968 53.8701 71.7968 53.3191C71.7968 52.7681 71.4122 52.3214 70.9377 52.3214C70.4632 52.3214 70.0785 52.7681 70.0785 53.3191C70.0785 53.8701 70.4632 54.3168 70.9377 54.3168Z" fill="white"/>
<path d="M82.3562 57.1437C83.5348 57.1437 84.4902 55.7168 84.4902 53.9565C84.4902 52.1963 83.5348 50.7693 82.3562 50.7693C81.1776 50.7693 80.2222 52.1963 80.2222 53.9565C80.2222 55.7168 81.1776 57.1437 82.3562 57.1437Z" fill="#060808"/>
<path d="M81.691 54.3168C82.1655 54.3168 82.5502 53.8701 82.5502 53.3191C82.5502 52.7681 82.1655 52.3214 81.691 52.3214C81.2165 52.3214 80.8319 52.7681 80.8319 53.3191C80.8319 53.8701 81.2165 54.3168 81.691 54.3168Z" fill="white"/>
</g>
<defs>
<radialGradient id="paint0_radial_949_5237" cx="0" cy="0" r="1" gradientUnits="userSpaceOnUse" gradientTransform="translate(77.9765 78.0765) scale(64.6)">
<stop stop-color="#AC5A6D"/>
<stop offset="0.34" stop-color="#AC5A6D" stop-opacity="0.99"/>
<stop offset="0.48" stop-color="#AC5A6D" stop-opacity="0.96"/>
<stop offset="0.58" stop-color="#AC5A6D" stop-opacity="0.91"/>
<stop offset="0.875" stop-color="#AC5A6D" stop-opacity="0.84"/>
<stop offset="1" stop-color="#AC5A6D" stop-opacity="0"/>
</radialGradient>
<radialGradient id="paint1_radial_949_5237" cx="0" cy="0" r="1" gradientUnits="userSpaceOnUse" gradientTransform="translate(78.5 78.6) scale(64.2668)">
<stop stop-color="#863750"/>
<stop offset="0.34" stop-color="#863750" stop-opacity="0.99"/>
<stop offset="0.48" stop-color="#863750" stop-opacity="0.96"/>
<stop offset="0.58" stop-color="#863750" stop-opacity="0.91"/>
<stop offset="0.729167" stop-color="#863750" stop-opacity="0.47"/>
<stop offset="1" stop-color="#863750" stop-opacity="0"/>
</radialGradient>
<clipPath id="clip0_949_5237">
<rect width="156.8" height="156.8" fill="white" transform="translate(0 0.100006)"/>
</clipPath>
</defs>
</svg>
